<svg width="103" height="85" viewBox="0 0 103 85" fill="none" xmlns="http://www.w3.org/2000/svg">
<path d="M10.3118 42.2491C10.3319 42.2491 10.4227 42.2853 10.6782 42.3117C12.1237 42.4599 14.0096 41.0469 14.0264 41.0338L14.181 40.9185L14.3592 40.9844C15.2097 41.2972 17.6133 42.0778 18.5176 41.9329C18.5344 41.9296 18.5579 41.923 18.5916 41.8736C18.9176 41.3401 18.4134 39.2256 17.9562 37.895L17.8587 37.6217L18.1243 37.4866C18.9042 37.0881 20.185 36.2351 20.2993 35.6587C20.3195 35.5632 20.2993 35.4908 20.2321 35.415C19.8959 35.0297 19.6034 34.9869 19.2 34.9243C18.7159 34.8518 18.1176 34.7629 17.4788 34.0087C17.3477 33.8572 17.2839 33.8374 17.2805 33.8374C17.1494 33.9428 16.9511 34.8419 16.9208 35.6752L16.8469 37.5887L16.2451 35.7674C16.2384 35.7542 15.6837 34.1108 14.6382 33.7485C14.2214 33.6036 13.781 33.6859 13.2868 33.9988C12.1842 34.7003 11.1959 35.3755 11.206 35.9057C11.2127 36.245 11.6497 36.6731 12.5036 37.1705L14.2281 38.1816L12.2615 37.7962C11.606 37.6678 10.1403 37.5591 9.77724 38.0301C9.58899 38.2804 9.75035 38.7184 9.9218 39.0412C10.6681 40.4541 10.4731 41.3763 10.3555 41.9296C10.3319 42.0416 10.2983 42.1964 10.305 42.2491H10.3118ZM10.89 43C10.7925 43 10.6983 42.9967 10.6042 42.9868C10.2647 42.9506 9.92516 42.8847 9.7369 42.6344C9.55201 42.3874 9.61252 42.0976 9.67639 41.7913C9.78061 41.2972 9.9386 40.5496 9.30661 39.3541C8.92674 38.6295 8.89985 38.0465 9.22593 37.6217C9.60244 37.1309 10.3891 37.0058 11.0849 37.0058H11.0984C10.7051 36.6402 10.5202 36.2878 10.5135 35.9189C10.4966 35.0363 11.4951 34.3314 12.9103 33.4323C13.586 32.9976 14.2449 32.8922 14.8702 33.1095C15.5392 33.3401 16.03 33.9099 16.3661 34.4401C16.4838 33.8704 16.6989 33.3269 17.0956 33.1952C17.304 33.1227 17.6335 33.1326 18.01 33.5772C18.4806 34.1305 18.8639 34.1865 19.3042 34.2557C19.7513 34.3216 20.2556 34.3973 20.7565 34.9704C20.9615 35.2075 21.0389 35.4875 20.9817 35.7905C20.8035 36.6896 19.3278 37.5986 18.7025 37.9477C19.0084 38.8864 19.7245 41.3368 19.1832 42.2227C19.0555 42.4335 18.8639 42.562 18.6285 42.6015C17.5057 42.7892 15.0248 41.9428 14.292 41.6826C13.8045 42.0218 12.2851 43 10.89 43Z" fill="#AA8988"/>
<path d="M14.6681 41.1683L14 40.9286C14.0413 40.8105 15.0676 38.0004 18.3737 37L18.5803 37.6843C15.6117 38.584 14.6784 41.144 14.6681 41.1683ZM21.5145 47.0873C20.8257 44.562 19.9303 43.1101 18.6044 42.3771L18.9454 41.7519C20.8774 42.8183 21.7005 45.0622 22.1998 46.8963L21.5145 47.0873ZM22.2412 68.7973L22.3858 69.0683C22.8197 69.8672 23.7358 71.1733 24.3385 71.2775C24.4383 71.2983 24.5176 71.274 24.5968 71.2011C24.9894 70.8502 25.0307 70.548 25.0858 70.1277C25.1512 69.6275 25.2339 69.0058 26.0088 68.3319C26.1637 68.1929 26.1809 68.1235 26.1809 68.1235C26.0673 67.988 25.1443 67.8039 24.2558 67.7865L22.2584 67.7518L24.1456 67.0918C24.1594 67.0849 25.8676 66.477 26.2257 65.3897C26.3669 64.9555 26.2739 64.5005 25.9364 64.0003C25.1788 62.8749 24.4177 61.8606 23.9011 61.8883C23.5429 61.9022 23.109 62.3642 22.6028 63.2569L21.5834 65.0597L21.945 63.0173C22.0655 62.3399 22.1516 60.822 21.6488 60.4572C21.3871 60.2662 20.9325 60.4433 20.595 60.6274C19.1348 61.4264 18.1671 61.2457 17.5851 61.1346C17.4645 61.1137 17.3027 61.0825 17.251 61.0894C17.2579 61.0964 17.2166 61.1867 17.1925 61.4785C17.0685 62.9686 18.5803 64.8895 18.5941 64.9104L18.7181 65.0667L18.6527 65.2543C18.3427 66.1366 17.5747 68.6376 17.7469 69.5685C17.7504 69.5858 17.7538 69.6102 17.8089 69.6414C18.3772 69.9645 20.5743 69.4052 21.9553 68.9015L22.2412 68.7973ZM24.4039 72C24.3419 72 24.2799 71.9965 24.2179 71.9826C23.2709 71.8194 22.2928 70.3153 21.914 69.6762C20.9428 70.0096 18.3944 70.8051 17.4576 70.2632C17.2338 70.1347 17.096 69.9367 17.0513 69.697C16.8377 68.5438 17.6643 65.9594 17.9226 65.1987C17.53 64.6672 16.359 62.9339 16.4865 61.4159C16.5175 61.0651 16.5795 60.7073 16.8377 60.5128C17.0926 60.3148 17.3956 60.3704 17.7159 60.4329C18.2325 60.5267 19.0177 60.6761 20.2575 59.9987C21.0083 59.5888 21.6144 59.5506 22.0655 59.8771C22.5924 60.2627 22.7371 61.0755 22.7474 61.798C23.1228 61.3881 23.4878 61.1902 23.8736 61.1763C24.7552 61.145 25.5507 62.1558 26.5219 63.5974C26.9868 64.2886 27.1142 64.966 26.8973 65.619C26.6665 66.3102 26.0845 66.8313 25.5335 67.1891C26.1327 67.3002 26.7079 67.5121 26.8525 67.9185C26.9317 68.1339 26.9283 68.4743 26.4702 68.8703C25.902 69.3705 25.8503 69.7665 25.7883 70.2215C25.7298 70.6835 25.6575 71.2045 25.0686 71.7395C24.8757 71.9097 24.645 72 24.4039 72Z" fill="#AA8988"/>
<path d="M21.3888 69.3465C20.5312 66.5184 18.2141 65.6531 18.1892 65.6465L18.395 65C18.501 65.0365 21.0426 65.9681 22 69.1376L21.3888 69.3465ZM13.184 73L13 72.3469C15.2547 71.6374 16.5426 70.7489 17.1757 69.4592L17.7432 69.7741C16.8202 71.654 14.8212 72.4861 13.184 73Z" fill="#AA8988"/>
<path d="M100.12 4.1828C99.3528 25.3347 97.6482 46.4527 95.7602 67.5301C95.2508 73.2114 94.7211 78.8894 94.1778 84.5673L94.7313 84.1477C72.9755 80.2665 51.1279 76.9065 29.2091 74.0777C22.9577 73.2723 16.6996 72.5076 10.438 71.7869C10.5636 72.0068 10.6893 72.2234 10.8183 72.4433C19.63 56.7359 25.5961 39.472 28.3262 21.6768C29.0902 16.7061 29.5996 11.6981 29.861 6.67663C29.7558 6.81537 29.6471 6.95748 29.5385 7.09622C47.9055 4.61254 66.4626 3.55681 84.9926 3.94933C90.1846 4.05761 95.3765 4.28432 100.562 4.61931C101.122 4.65653 101.122 3.78014 100.562 3.7463C81.9535 2.54507 63.2605 2.79208 44.6932 4.50088C39.5522 4.97122 34.4214 5.56338 29.3076 6.25366C29.1106 6.28073 28.9952 6.50406 28.985 6.67663C28.0512 24.5293 23.8915 42.1993 16.7335 58.597C14.7369 63.1752 12.5059 67.6451 10.0611 72.0034C9.88451 72.3147 10.1154 72.6226 10.438 72.6599C32.3874 75.1909 54.2757 78.2431 76.0757 81.8298C82.2218 82.8416 88.3645 83.8939 94.497 84.9903C94.7992 85.0444 95.0267 84.8685 95.0539 84.5673C97.0709 63.4967 98.9283 42.4023 100.171 21.2708C100.507 15.5759 100.793 9.88105 101 4.1828C101.02 3.6211 100.141 3.6211 100.12 4.1828Z" fill="#AA8988"/>
<path d="M102.123 2.17683C101.327 23.5217 96.6464 44.5511 93.4477 65.6144C92.5911 71.2458 91.8229 76.8941 91.2756 82.5662C91.4591 82.4271 91.6461 82.2846 91.8297 82.1455C71.0128 78.4478 49.8899 78.7633 28.8521 77.6608C22.6995 77.3385 16.5571 76.8738 10.4385 76.1749C10.5642 76.3954 10.69 76.616 10.8192 76.8331C15.6393 68.2164 18.8176 58.7313 21.248 49.1953C23.8314 39.0758 25.5548 28.7392 26.7208 18.3687C27.3326 12.9341 27.7779 7.47913 28.0601 2.01739C27.9139 2.16326 27.7677 2.30913 27.6216 2.45501C33.8456 2.28878 40.0764 2.17344 46.3038 2.07845C58.7687 1.89187 71.2405 1.79349 83.7089 1.97329C89.9975 2.06149 96.286 2.20736 102.561 2.61445C103.125 2.64837 103.125 1.77314 102.561 1.73582C90.7147 0.972534 78.8072 0.979318 66.9371 1.00985C56.0358 1.03699 45.1344 1.18965 34.2365 1.42372C32.0304 1.47121 29.8243 1.51871 27.6216 1.57977C27.3734 1.58655 27.1933 1.77653 27.1797 2.01739C26.6698 11.9537 25.6262 21.8696 23.9946 31.6838C22.3154 41.7829 20.0379 51.8312 16.6455 61.4995C14.8473 66.6288 12.716 71.6427 10.0612 76.3921C9.88439 76.7042 10.1155 77.0129 10.4385 77.0502C31.2995 79.435 52.334 78.7599 73.2291 80.5952C79.3851 81.1346 85.5139 81.9115 91.5985 82.9902C91.8976 83.0445 92.122 82.8681 92.1526 82.5662C94.1989 61.3774 98.9748 40.5515 101.548 19.4271C102.248 13.6974 102.785 7.94389 103 2.17683C103.023 1.6103 102.143 1.6103 102.123 2.17683Z" fill="#AA8988"/>
<path d="M29.1523 18.2366C34.6368 18.4387 37.3961 12.5046 38.0519 10.8914C35.4048 10.5984 33.2878 11.1137 31.7654 12.4271C29.6043 14.2895 29.2203 17.2566 29.1523 18.2366ZM29.4072 18.9371C29.1965 18.9371 28.979 18.927 28.7615 18.9101L28.4387 18.8866V18.5666C28.4387 18.3949 28.4625 14.3535 31.3067 11.9051C33.0737 10.3829 35.5203 9.82721 38.5854 10.2617L39 10.3189L38.8675 10.7129C38.8403 10.8005 36.0097 18.9371 29.4072 18.9371ZM17.4526 0.710604C17.9046 2.66729 20.2051 10.7702 27.127 10.1573C27.0251 8.5003 26.0872 1.06422 17.4526 0.710604ZM26.3557 10.8847C18.591 10.8847 16.6915 0.51864 16.6745 0.41087L16.5997 0L17.0245 0.00336779C27.6571 0.144815 27.8406 10.3593 27.8406 10.4637L27.844 10.7702L27.5348 10.8106C27.127 10.8611 26.7363 10.8847 26.3557 10.8847ZM0.852923 61.8225C1.30487 63.7792 3.61558 71.8754 10.5273 71.2692C10.4254 69.6122 9.4875 62.1795 0.852923 61.8225ZM9.75595 72C1.99129 72 0.0917485 61.6339 0.0747582 61.5228L0 61.1119L0.424763 61.1187C11.0574 61.2567 11.2409 71.4746 11.2409 71.5757L11.2443 71.8855L10.9351 71.9225C10.5273 71.9731 10.1365 72 9.75595 72ZM20.5279 11.7839C19.9265 13.4813 17.9046 20.7052 25.6217 24.2582C25.8494 22.3621 26.3489 14.8789 20.5279 11.7839ZM26.1688 25.2517L25.7644 25.0799C15.9983 20.9409 19.974 11.2619 20.0182 11.1642L20.1609 10.8274L20.4939 10.9857C28.0275 14.6162 26.2673 24.723 26.2469 24.824L26.1688 25.2517ZM12.2773 45.0745C11.6725 46.7719 9.654 53.9958 17.3677 57.5488C17.5988 55.6527 18.0983 48.1695 12.2773 45.0745ZM17.9148 58.5423L17.5138 58.3739C7.74767 54.2315 11.7234 44.5525 11.7642 44.4548L11.9069 44.1181L12.24 44.2763C19.7769 47.9102 18.0133 58.0136 17.9963 58.118L17.9148 58.5423ZM34.9223 21.4697C33.3693 21.4697 28.6256 22.1365 27.1236 30.071C28.6494 29.8824 33.6888 28.7205 35.0514 21.4697H34.9223ZM26.2843 30.8052L26.3557 30.3943C28.1227 19.9104 35.432 20.7961 35.5102 20.8062L35.867 20.8567L35.8058 21.207C34.2597 30.5526 26.7804 30.7951 26.7057 30.7984L26.2843 30.8052ZM24.6192 40.2249C30.2091 41.6225 34.0558 34.082 34.9427 32.1422C34.8407 32.1388 34.7422 32.1355 34.6436 32.1355C28.3945 32.1355 25.2853 38.6387 24.6192 40.2249ZM26.043 41.1005C25.4042 41.1005 24.7382 40.9995 24.0484 40.7806L23.7052 40.6728L23.8241 40.336C23.8581 40.2417 27.2935 30.7715 35.4932 31.4787L35.9621 31.5192L35.7854 31.9536C35.6223 32.3645 32.0407 41.1005 26.043 41.1005ZM20.9153 51.8943C26.5018 53.2886 30.3484 45.7514 31.2353 43.8116C31.1334 43.8082 31.0349 43.8082 30.9363 43.8082C24.6872 43.8082 21.5779 50.3081 20.9153 51.8943ZM22.3357 52.7699C21.7003 52.7699 21.0342 52.6689 20.341 52.4533L19.9978 52.3422L20.1168 52.0054C20.1507 51.9111 23.5964 42.4476 31.7858 43.1515L32.2548 43.1885L32.0815 43.623C31.915 44.0339 28.3334 52.7699 22.3357 52.7699ZM18.9342 25.3393C18.7779 27.2286 18.6454 33.6611 23.7527 35.7929C23.9804 34.2504 24.361 28.734 18.9342 25.3393ZM24.2794 36.7291L23.9056 36.5944C16.9395 34.1124 18.2818 24.8038 18.2954 24.7095L18.3735 24.2077L18.8153 24.4603C26.0261 28.5622 24.3814 36.2677 24.3644 36.3452L24.2794 36.7291Z" fill="#AA8988"/>
<path d="M26.8857 10.6575C21.5032 8.22722 16.5942 0.699686 16.3893 0.378574L16.9702 0C17.0172 0.077743 21.9733 7.67964 27.1678 10.0254L26.8857 10.6575ZM25.227 24.9487C18.9312 19.3174 19.6094 11.2254 19.6162 11.1443L20.3045 11.2085C20.2978 11.2896 19.6564 19.0402 25.687 24.4282L25.227 24.9487ZM28.6217 18.6211L27.9972 18.3169C31.3314 11.3843 37.6139 10.1877 37.8791 10.137L38 10.8232C37.9396 10.8367 31.7948 12.0163 28.6217 18.6211ZM26.4962 30.6374L25.9926 30.1608L34.6489 20.8283L35.156 21.3049L26.4962 30.6374ZM23.2862 36.387L17.9708 24.8371L18.5987 24.5431L23.9141 36.093L23.2862 36.387ZM23.941 40.7136L23.5179 40.1626L34.6926 31.5027L35.1157 32.0537L23.941 40.7136ZM17.0945 58.3849C13.6863 55.8126 11.5575 45.1111 11.4668 44.6582L12.1451 44.523C12.1686 44.6311 14.3142 55.4137 17.5108 57.8238L17.0945 58.3849ZM20.3549 52.3412L19.7773 51.9593C22.3729 47.9977 30.7203 43.3839 31.0763 43.1878L31.4053 43.7996C31.3214 43.847 22.8564 48.525 20.3549 52.3412ZM10.4964 72C6.70885 70.4722 0.271981 62.0962 0 61.7413L0.550676 61.3154C0.614473 61.3999 7.13864 69.8942 10.755 71.3578L10.4964 72ZM22.3427 62.7148L21.6644 62.5762C22.2856 59.5206 25.0893 56.5258 25.2069 56.4007L25.7072 56.8807C25.6803 56.9111 22.9236 59.8552 22.3427 62.7148ZM23.9913 67.2171L23.8537 66.5377L27.6043 65.7772L27.742 66.46L23.9913 67.2171ZM25.6199 62.8737L25.0961 62.4174L26.7649 60.467L27.2887 60.92L25.6199 62.8737ZM12.2626 37.6039C8.70337 36.8231 6.79615 34.0852 6.71556 33.9702L7.28638 33.5748C7.30317 33.5984 9.12645 36.2045 12.4104 36.9278L12.2626 37.6039ZM16.2315 35.4237C16.1912 33.1522 14.6063 30.678 14.5896 30.6543L15.1705 30.2758C15.241 30.3805 16.8796 32.9359 16.9232 35.4135L16.2315 35.4237ZM12.041 34.1223L10.6945 31.9658L11.2788 31.594L12.6286 33.7539L12.041 34.1223Z" fill="#AA8988"/>
<path d="M6.99985 33.4594C6.83153 33.4594 6.6935 33.594 6.6935 33.7622C6.6935 33.9305 6.83153 34.0684 6.99985 34.0684C7.16818 34.0684 7.30284 33.9305 7.30284 33.7622C7.30284 33.594 7.16818 33.4594 6.99985 33.4594ZM6.99985 34.7615C6.44775 34.7615 6 34.314 6 33.7622C6 33.2138 6.44775 32.7664 6.99985 32.7664C7.54859 32.7664 7.99634 33.2138 7.99634 33.7622C7.99634 34.314 7.54859 34.7615 6.99985 34.7615ZM10.969 30.9933C10.8006 30.9933 10.6626 31.1312 10.6626 31.2994C10.6626 31.471 10.8006 31.609 10.969 31.609C11.1407 31.609 11.2787 31.471 11.2787 31.2994C11.2787 31.1312 11.1407 30.9933 10.969 30.9933ZM10.969 32.3021C10.4169 32.3021 9.96911 31.8546 9.96911 31.2994C9.96911 30.7477 10.4169 30.3002 10.969 30.3002C11.5211 30.3002 11.9722 30.7477 11.9722 31.2994C11.9722 31.8546 11.5211 32.3021 10.969 32.3021ZM14.9313 30.0479C14.763 30.0479 14.6284 30.1824 14.6284 30.3507C14.6284 30.5189 14.763 30.6535 14.9313 30.6535C15.0997 30.6535 15.2343 30.5189 15.2343 30.3507C15.2343 30.1824 15.0997 30.0479 14.9313 30.0479ZM14.9313 31.3465C14.3826 31.3465 13.9349 30.8991 13.9349 30.3507C13.9349 29.8022 14.3826 29.3548 14.9313 29.3548C15.4801 29.3548 15.9278 29.8022 15.9278 30.3507C15.9278 30.8991 15.4801 31.3465 14.9313 31.3465ZM26.1486 55.6112C25.9432 55.6112 25.7782 55.7794 25.7782 55.9847C25.7782 56.1899 25.9432 56.3548 26.1486 56.3548C26.3539 56.3548 26.5189 56.1899 26.5189 55.9847C26.5189 55.7794 26.3539 55.6112 26.1486 55.6112ZM26.1486 57.0479C25.5628 57.0479 25.0847 56.5701 25.0847 55.9847C25.0847 55.3959 25.5628 54.9181 26.1486 54.9181C26.7377 54.9181 27.2157 55.3959 27.2157 55.9847C27.2157 56.5701 26.7377 57.0479 26.1486 57.0479ZM28.0978 60.0557C27.8756 60.0557 27.6938 60.2374 27.6938 60.4628C27.6938 60.6849 27.8756 60.8665 28.0978 60.8665C28.3233 60.8665 28.5051 60.6849 28.5051 60.4628C28.5051 60.2374 28.3233 60.0557 28.0978 60.0557ZM28.0978 61.5596C27.4918 61.5596 27.0003 61.0684 27.0003 60.4628C27.0003 59.8572 27.4918 59.3626 28.0978 59.3626C28.7037 59.3626 29.1986 59.8572 29.1986 60.4628C29.1986 61.0684 28.7037 61.5596 28.0978 61.5596ZM28.9226 65.3514C28.66 65.3514 28.4445 65.5667 28.4445 65.8325C28.4445 66.095 28.66 66.3069 28.9226 66.3069C29.1852 66.3069 29.4006 66.095 29.4006 65.8325C29.4006 65.5667 29.1852 65.3514 28.9226 65.3514ZM28.9226 67C28.2762 67 27.751 66.4751 27.751 65.8325C27.751 65.1865 28.2762 64.6583 28.9226 64.6583C29.5689 64.6583 30.0941 65.1865 30.0941 65.8325C30.0941 66.4751 29.5689 67 28.9226 67ZM54.976 22C55.6998 22 56.3159 22.1211 56.8242 22.3667C57.3292 22.6123 57.585 22.9252 57.585 23.3021C57.585 23.4703 57.5413 23.615 57.4605 23.7361C57.3763 23.8606 57.2517 23.9211 57.0901 23.9211C56.9286 23.9211 56.5818 23.7966 56.0465 23.5443C55.5113 23.2953 55.0231 23.1675 54.5821 23.1675C54.1411 23.1675 53.69 23.3088 53.222 23.588C52.7541 23.8673 52.5184 24.2037 52.5184 24.6041C52.5184 25.1525 52.8012 25.5529 53.3702 25.8086C53.7943 26.0004 54.4037 26.1686 55.1948 26.32C55.9859 26.468 56.6323 26.7776 57.1339 27.2385C57.6355 27.6994 57.8846 28.3993 57.8846 29.3346C57.8846 30.7611 57.4571 31.8142 56.5986 32.4938C56.1172 32.8707 55.4406 33.0624 54.5653 33.0624C53.69 33.0624 52.8181 32.8202 51.9495 32.3424C51.3806 32.0396 51.0978 31.7402 51.0978 31.4407C51.0978 31.3297 51.1449 31.2052 51.2392 31.0707C51.3334 30.9394 51.4647 30.8284 51.633 30.7376C51.798 30.6501 51.9529 30.6333 52.0909 30.6972C52.2323 30.7578 52.4578 30.8654 52.7676 31.0236C53.0806 31.1783 53.3096 31.2826 53.4543 31.3398C53.9223 31.5181 54.3633 31.6056 54.7774 31.6056C55.1881 31.6056 55.5853 31.4037 55.9691 30.9966C56.3563 30.5895 56.5481 30.0916 56.5481 29.5028C56.5481 28.7222 56.1576 28.1772 55.3766 27.8643C54.9995 27.7095 54.5686 27.5918 54.0906 27.5144C53.0975 27.3361 52.3501 27.0366 51.8485 26.6194C51.3503 26.2022 51.0978 25.5697 51.0978 24.7219C51.0978 23.8774 51.458 23.2112 52.1851 22.7267C52.9089 22.2422 53.8381 22 54.976 22ZM62.4665 23.9043C62.2981 23.9043 62.0086 24.3955 61.5979 25.3847C61.1838 26.3671 60.9785 26.9794 60.9785 27.2116C60.9785 27.2688 60.9886 27.3058 61.0121 27.3293C61.0997 27.4168 61.4531 27.4976 62.0658 27.5615C62.6786 27.6288 63.0859 27.6624 63.2845 27.6624C63.4865 27.6624 63.5976 27.649 63.6212 27.6221C63.6414 27.5951 63.6515 27.5043 63.6515 27.3563C63.6515 27.2049 63.5033 26.5925 63.2037 25.5159C62.9007 24.4426 62.655 23.9043 62.4665 23.9043ZM62.5338 22.0505C62.8132 22.0505 63.0455 22.1716 63.234 22.4172C63.4259 22.6628 63.6717 23.1675 63.9713 23.9379C64.6715 25.7514 65.3583 28.5978 66.0282 32.477C66.0383 32.5207 66.0451 32.5847 66.0451 32.6688C66.0451 32.7495 65.9912 32.8404 65.8835 32.9346C65.7791 33.0321 65.6276 33.0759 65.4324 33.0759C65.2371 33.0759 65.0755 33.0321 64.9408 32.9346C64.8062 32.8404 64.7187 32.6856 64.6715 32.4669C64.6278 32.2516 64.5436 31.8243 64.4224 31.1884C64.1531 29.7753 63.9747 29.0385 63.8871 28.9847C63.7525 28.9073 63.3115 28.8232 62.5574 28.7323C61.8066 28.6449 61.3084 28.5978 61.0626 28.5978C60.8169 28.5978 60.6721 28.6213 60.6283 28.665C60.4264 28.8434 60.1537 30.1993 59.8069 32.726C59.7632 32.9379 59.5511 33.0422 59.1707 33.0422C58.7936 33.0422 58.6051 32.8841 58.6051 32.5611C58.6051 31.757 58.898 30.2262 59.4905 27.9652C60.0796 25.7043 60.5711 24.2037 60.9616 23.4703C61.4531 22.5215 61.975 22.0505 62.5338 22.0505ZM71.2934 32.7428C70.8356 31.397 70.3643 30.1622 69.8728 29.0419C69.3813 27.9215 68.7517 26.5185 67.9842 24.8228C67.7149 24.234 67.5499 23.8673 67.4826 23.7293C67.4152 23.588 67.3816 23.4333 67.3816 23.2617C67.3816 23.0867 67.4691 22.9185 67.6408 22.7503C67.8125 22.5821 68.0044 22.5013 68.2165 22.5013C68.4286 22.5013 68.607 22.6056 68.7517 22.8176L69.5563 24.6546C70.6807 27.252 71.482 29.1394 71.9634 30.3204L72.263 29.1495C72.5088 28.1267 72.7646 27.114 73.0339 26.1114C73.7914 23.3693 74.5388 22 75.2727 22C75.4073 22 75.5218 22.037 75.6161 22.1144C75.7103 22.1951 75.7574 22.2994 75.7574 22.434C75.7574 22.5686 75.6867 22.7604 75.5487 23.0194C75.4073 23.2751 75.2323 23.7361 75.0202 24.4056C74.8115 25.0751 74.6802 25.4654 74.6297 25.5832C74.5792 25.7009 74.3132 26.6396 73.8251 28.3993C73.3403 30.1589 72.9262 31.5417 72.5795 32.5443C72.5256 32.7226 72.4179 32.8707 72.263 32.985C72.1081 33.1028 71.9297 33.16 71.7378 33.16C71.5426 33.16 71.3944 33.0221 71.2934 32.7428ZM76.6765 27.3125C76.5216 27.2116 76.4442 27.0669 76.4442 26.8785C76.4442 26.6901 76.5048 26.5151 76.626 26.3604C76.5822 25.2467 76.5587 24.0692 76.5587 22.8344C76.626 22.5686 76.7304 22.3735 76.8684 22.249C77.0098 22.1279 77.2118 22.0505 77.4811 22.0168C78.9523 22.0841 80.5446 22.1178 82.2615 22.1178C82.6857 22.2052 82.8978 22.3903 82.8978 22.6662C82.8978 23.1338 82.44 23.4097 81.5243 23.4871C81.2819 23.4972 81.0126 23.5039 80.723 23.5039H79.6357C79.4236 23.5039 78.8412 23.4568 77.8817 23.3693C77.8817 24.7622 77.9053 25.7211 77.949 26.2426C78.5382 26.2527 79.6761 26.2594 81.3593 26.2594C81.7599 26.3368 81.9619 26.5185 81.9619 26.8011C81.9619 27.0871 81.8003 27.3058 81.4771 27.4639C81.4435 27.4841 81.3795 27.5077 81.292 27.5312L78.4002 27.4807C78.2217 27.4807 78.077 27.4908 77.9659 27.5144L78.0298 30.3877C78.0298 31.0336 78.0164 31.4946 77.9827 31.7738L81.8609 31.7234C82.2178 31.7806 82.3962 31.9286 82.3962 32.1742C82.3962 32.3424 82.3188 32.5073 82.1706 32.6755C82.0191 32.8437 81.8441 32.9514 81.6421 32.9951L77.3633 33.0624C77.1074 33.0624 76.929 33.012 76.828 32.9178C76.727 32.8236 76.6765 32.6654 76.6765 32.4434C76.7236 32.1305 76.7438 31.6292 76.7438 30.9394V29.7686L76.6765 27.3125ZM47.7313 49.6897C47.573 51.6344 47.5326 53.4849 47.6101 55.2445C47.8693 55.3454 48.317 55.4228 48.9499 55.4733C49.5828 55.5237 50.2023 55.4699 50.8015 55.3084C51.4007 55.1436 51.734 54.8576 51.8047 54.4505C51.862 54.1443 51.899 53.9054 51.9125 53.7372C52.0303 52.2938 51.7475 50.9884 51.0675 49.8142C50.3874 48.64 49.3775 47.708 48.0342 47.015C47.8726 48.3204 47.7716 49.212 47.7313 49.6897ZM46.2062 55.988C46.0514 55.8501 45.9807 55.7088 45.9908 55.5574C46.0042 55.4093 46.0749 55.2882 46.2062 55.1974C46.1254 53.5925 46.1692 51.7622 46.3375 49.7099C46.388 49.0875 46.5159 47.8796 46.7179 46.0864C46.7886 45.9249 46.9132 45.7903 47.0984 45.6826C47.2801 45.575 47.4485 45.5245 47.6033 45.5379C47.7582 45.5514 47.8524 45.5649 47.8861 45.5783C49.4381 46.1536 50.751 47.126 51.8216 48.492C52.8955 49.8613 53.387 51.4325 53.2961 53.2157C53.1345 55.1705 52.2255 56.3279 50.5625 56.6946C50.0844 56.8022 49.5862 56.8325 49.0711 56.7921C48.5527 56.7484 48.1049 56.671 47.7212 56.5634C47.7582 56.6576 47.7717 56.7787 47.7582 56.9267C47.7447 57.0748 47.6404 57.2127 47.4485 57.3372C47.2532 57.4617 47.031 57.5122 46.7785 57.492C46.5294 57.4718 46.3846 57.3103 46.3442 57.0041L46.2062 55.988ZM58.0967 48.3103C57.9284 48.2968 57.5985 48.7645 57.107 49.7133C56.6155 50.6621 56.3596 51.2542 56.3428 51.4864C56.3361 51.5436 56.3461 51.5839 56.3663 51.6041C56.4471 51.7017 56.7905 51.8093 57.3965 51.9237C57.9991 52.0415 58.4031 52.1088 58.6051 52.1256C58.8037 52.1424 58.9148 52.1357 58.9417 52.1088C58.9653 52.0852 58.9821 51.9978 58.9956 51.8464C59.0091 51.6983 58.9081 51.0759 58.696 49.9791C58.4839 48.8822 58.2853 48.3271 58.0967 48.3103ZM58.3122 46.4665C58.5916 46.4901 58.8138 46.6314 58.9821 46.8938C59.1538 47.1495 59.3558 47.6778 59.5915 48.4684C60.1436 50.3357 60.5913 53.2258 60.9414 57.1454C60.9482 57.1925 60.9515 57.2565 60.9448 57.3372C60.9381 57.4213 60.8775 57.5054 60.763 57.5929C60.6485 57.677 60.4971 57.7107 60.3018 57.6972C60.1065 57.6804 59.9483 57.6198 59.8204 57.5155C59.6958 57.4079 59.6184 57.2464 59.5948 57.0277C59.5679 56.8056 59.5174 56.375 59.4467 55.7323C59.2952 54.2991 59.1808 53.5522 59.0966 53.4916C58.9687 53.4007 58.5344 53.283 57.7904 53.1316C57.0497 52.9802 56.5549 52.8961 56.3091 52.8759C56.0667 52.8557 55.9186 52.8658 55.8715 52.9062C55.656 53.0677 55.2722 54.3933 54.7235 56.8864C54.6629 57.095 54.4407 57.1824 54.0637 57.1521C53.6866 57.1219 53.5115 56.9436 53.5385 56.6206C53.6024 55.8232 54.0233 54.3193 54.7976 52.1122C55.5685 49.9084 56.1812 48.455 56.6323 47.7551C57.1979 46.8535 57.7601 46.4228 58.3122 46.4665ZM62.8469 47.0082L69.6068 47.4624C69.9199 47.5869 70.068 47.7619 70.0478 47.9839C70.0041 48.5391 69.7516 48.7981 69.2971 48.7611C68.4656 48.6905 67.5802 48.6434 66.6443 48.6097C66.5096 49.5619 66.4221 50.2785 66.3817 50.7596C66.3413 51.2407 66.3177 51.5503 66.3043 51.6849L65.8936 57.5357C65.8633 57.8789 65.7589 58.0707 65.5771 58.1144C65.4391 58.1447 65.2708 58.1548 65.0721 58.1379C64.749 58.111 64.5874 57.9125 64.584 57.5458C64.5874 56.6845 64.685 55.0864 64.8769 52.748C65.0688 50.4131 65.2169 49.0067 65.3246 48.5357C65.089 48.529 64.7422 48.5054 64.2877 48.4684C63.8333 48.428 63.2677 48.3776 62.591 48.3103C62.4126 48.2968 62.2779 48.2295 62.187 48.1084C62.0961 47.9907 62.0591 47.8493 62.0726 47.6912C62.086 47.5297 62.1668 47.3783 62.3183 47.2336C62.4698 47.089 62.6483 47.015 62.8469 47.0082ZM70.4148 52.7413C70.2667 52.6269 70.1993 52.4789 70.2162 52.2905C70.2296 52.1021 70.3071 51.9338 70.4417 51.7892C70.4889 50.6755 70.5629 49.5013 70.6639 48.2699C70.7514 48.0075 70.8693 47.8224 71.0208 47.7114C71.1689 47.6004 71.3776 47.5398 71.6469 47.5297C73.108 47.7148 74.6936 47.8796 76.4038 48.0209C76.8213 48.1421 77.0165 48.3439 76.993 48.6232C76.9559 49.0875 76.4745 49.323 75.5588 49.323C75.3131 49.3163 75.0471 49.2994 74.7576 49.2759L73.6736 49.185C73.4649 49.1716 72.8824 49.0774 71.9365 48.9092C71.822 50.2987 71.7648 51.2542 71.7648 51.7791C72.3539 51.8396 73.4884 51.9372 75.1649 52.0751C75.5588 52.1862 75.744 52.3813 75.7204 52.6673C75.6968 52.9499 75.5184 53.1551 75.1818 53.283C75.1481 53.3032 75.0841 53.32 74.9932 53.3368L72.1149 53.0475C71.9365 53.034 71.7917 53.034 71.6806 53.0475L71.5123 55.9174C71.4584 56.56 71.4045 57.0209 71.3473 57.2935L75.2188 57.5626C75.5689 57.6467 75.7339 57.8116 75.7137 58.0572C75.7002 58.2221 75.6093 58.3836 75.4477 58.5383C75.2828 58.6897 75.101 58.7839 74.8956 58.8108L70.6269 58.5282C70.371 58.5047 70.196 58.4441 70.1051 58.3432C70.0108 58.2389 69.9738 58.0774 69.994 57.8553C70.0613 57.5458 70.1253 57.0512 70.1825 56.3615L70.2801 55.1974L70.4148 52.7413ZM58.6791 38.7047L59.3019 38.7181C59.44 38.7181 59.5208 38.7114 59.5376 38.7047V36.1578C59.5443 36.0164 59.615 35.8987 59.7497 35.7978C59.881 35.7002 60.0055 35.6497 60.12 35.6497C60.2378 35.6497 60.3287 35.6867 60.3994 35.7607C60.4701 35.8348 60.5038 35.9525 60.4937 36.1073C60.4836 36.2654 60.4802 37.1267 60.4802 38.6912L61.9346 38.6407C62.1837 38.6407 62.3082 38.7888 62.3082 39.0781C62.3082 39.2935 62.2443 39.4516 62.1163 39.5593C61.9851 39.6669 61.8504 39.7275 61.7056 39.7342C61.5609 39.7443 61.4161 39.7477 61.2781 39.7477L60.5173 39.7342C60.5173 40.074 60.5543 40.7436 60.625 41.7462C60.6957 42.7488 60.7495 43.3948 60.7933 43.6908C60.8337 43.9836 60.8404 44.1753 60.8169 44.2594C60.7933 44.3469 60.7462 44.4075 60.6788 44.4411C60.5711 44.4916 60.4264 44.5151 60.2446 44.5151C60.0628 44.5151 59.955 44.4176 59.9214 44.2157C59.7564 43.1323 59.6453 41.6419 59.5881 39.7477C59.5107 39.7544 59.2245 39.7611 58.7296 39.7611C58.2314 39.7611 57.9856 39.6164 57.9856 39.3237C57.9856 38.9099 58.2146 38.7047 58.6791 38.7047ZM63.9713 40.4778L64.0723 43.4116C64.0723 43.775 64.0555 43.9869 64.0218 44.0441C64.005 44.1922 63.9578 44.3099 63.8804 44.3907C63.7996 44.4748 63.6481 44.5151 63.4259 44.5151C63.3182 44.5151 63.2307 44.4479 63.1667 44.3099C63.0994 44.1753 63.0623 44.0172 63.0522 43.8456C62.995 42.3888 62.9176 41.0194 62.8233 39.7409C62.729 38.4624 62.6786 37.2714 62.6786 36.1712C62.6786 35.9963 62.7392 35.8617 62.8536 35.7607C62.9714 35.6598 63.1061 35.6127 63.2643 35.6127C63.4966 35.6127 63.6346 35.8112 63.6818 36.2082C63.7255 36.6052 63.7558 37.1032 63.7693 37.6987C63.7794 38.2942 63.7962 38.7282 63.8131 39.0007C64.2271 38.7854 64.6379 38.6778 65.0553 38.6778C66.0148 38.6778 66.6241 39.1017 66.88 39.9462C67.0281 40.4273 67.1055 41.043 67.1055 41.7966C67.1055 42.0456 67.082 42.4359 67.0348 42.9708C66.9911 43.5058 66.9641 43.849 66.954 44.0071C66.9473 44.1652 66.8766 44.2864 66.7487 44.3738C66.6207 44.4579 66.4827 44.505 66.3346 44.505C66.1023 44.505 65.9845 44.3772 65.9845 44.1316L66.072 41.9682C66.072 41.7899 66.0653 41.4871 66.0484 41.0632C66.0316 40.6393 65.9474 40.3062 65.7926 40.0572C65.6411 39.8082 65.3718 39.6837 64.9913 39.6837C64.3113 39.6837 63.9713 39.9495 63.9713 40.4778ZM69.7146 39.6097C69.3981 39.6097 69.1288 39.788 68.9066 40.1447C68.8224 40.2692 68.745 40.5518 68.6709 40.9892C69.829 40.9892 70.4081 40.7032 70.4081 40.1312C70.4081 39.7847 70.1758 39.6097 69.7146 39.6097ZM69.6506 38.7551C70.0916 38.7551 70.5091 38.883 70.9063 39.1387C71.3036 39.3944 71.5022 39.7107 71.5022 40.0875C71.5022 40.4643 71.3406 40.8277 71.0174 41.1809C70.6942 41.5342 70.2633 41.7462 69.7247 41.8202C69.4924 41.8538 69.1456 41.8707 68.681 41.8707C68.7719 42.5738 68.9504 43.0381 69.2163 43.2602C69.3005 43.3544 69.4116 43.3981 69.553 43.3981C70.0647 43.3981 70.4956 43.2333 70.8457 42.9069C71.1925 42.5806 71.4416 42.4191 71.5897 42.4191C71.657 42.4191 71.7547 42.4796 71.8893 42.6041C72.0206 42.7286 72.088 42.843 72.088 42.9507C72.088 43.166 71.8254 43.4755 71.3036 43.8826C71.0713 44.0744 70.7918 44.2325 70.4653 44.3604C70.1387 44.4882 69.8324 44.5522 69.553 44.5522C68.8325 44.5522 68.3006 44.0879 67.9606 43.1626C67.7452 42.5907 67.6374 41.9615 67.6374 41.2751C67.6374 40.5888 67.799 39.9966 68.1222 39.4987C68.4454 39.0041 68.9571 38.7551 69.6506 38.7551ZM76.1951 41.7327C76.1109 41.0699 76.9357 40.9522 77.4205 41.1002C78.2419 41.3525 78.8748 42.0389 79.6424 42.4123C80.4436 42.7993 81.4132 42.9641 82.1807 42.409C82.8911 41.8976 83.2311 41.0295 82.8271 40.2153C82.4703 39.4987 81.3997 40.1312 81.7532 40.8445C81.834 41.0093 81.6758 41.228 81.531 41.3492C81.292 41.5477 81.0058 41.5645 80.7096 41.4938C79.8915 41.3021 79.2586 40.6561 78.5449 40.2523C77.8278 39.852 76.9862 39.6164 76.1951 39.9327C75.4747 40.2221 74.8451 40.9084 74.9495 41.7327C74.9932 42.0658 75.2053 42.3518 75.5723 42.3518C75.8753 42.3518 76.2355 42.0658 76.1951 41.7327ZM55.3631 41.6822C55.4675 40.8613 54.838 40.1716 54.1209 39.8856C53.3264 39.5693 52.4848 39.8015 51.7677 40.2052C51.054 40.6056 50.4211 41.2516 49.6064 41.4467C49.3337 41.5107 49.0442 41.5073 48.8153 41.329C48.6604 41.2112 48.4719 40.9723 48.5594 40.7974C48.9163 40.0841 47.8424 39.4516 47.4855 40.1682C47.0849 40.9824 47.4215 41.8505 48.1319 42.3619C48.8994 42.917 49.8724 42.7521 50.6736 42.3619C51.4378 41.9918 52.0707 41.3088 52.8921 41.0531C53.3769 40.9017 54.2017 41.0228 54.1209 41.6822C54.0771 42.0187 54.4373 42.3047 54.7403 42.3047C55.1106 42.3047 55.3194 42.0187 55.3631 41.6822Z" fill="#AA8988"/>
</svg>
