<svg width="241" height="40" viewBox="0 0 241 40" fill="none" xmlns="http://www.w3.org/2000/svg">
<path d="M66.6458 26.4709C55.5729 26.4709 45.2813 20.924 36.0104 15.174C29.4271 11.0907 23.6042 9.96045 18.7031 11.799C11.0625 14.674 8.16146 23.9292 8.13542 24.0229L6.78125 23.6115C6.90625 23.2052 9.90625 13.6063 18.1979 10.4865C23.5313 8.46566 29.776 9.64795 36.7552 13.9709C51.1563 22.9032 68.0469 31.3407 86.3542 18.3146C104.771 5.21045 115.542 10.799 115.99 11.0438L115.318 12.2834C115.214 12.2313 104.802 6.91878 87.1719 19.4657C80.0885 24.5073 73.224 26.4709 66.6458 26.4709Z" fill="#AA8988"/>
<path d="M92.5365 3.67875C94.1823 5.28292 98.3385 8.54334 105.568 9.37667C103.198 7.18917 97.9844 3.11625 92.5365 3.67875ZM107.432 10.9444H107.396C95.6979 10.3558 90.776 3.89229 90.5729 3.62146C90.4323 3.42875 90.3958 3.18396 90.474 2.96C90.5573 2.73604 90.7448 2.56417 90.974 2.51208C99.599 0.475627 107.625 9.38708 107.958 9.76729C108.151 9.98083 108.193 10.2881 108.068 10.5433C107.953 10.7881 107.703 10.9444 107.432 10.9444ZM93.9948 13.8975C93.9948 13.8975 86.0313 4.88188 77.7031 6.86104C77.7031 6.86104 82.4948 13.3194 93.9948 13.8975Z" fill="#AA8988"/>
<path d="M79.0988 7.3402C80.7446 8.94436 84.9061 12.2048 92.13 13.0381C89.7603 10.8454 84.5467 6.78291 79.0988 7.3402ZM93.9998 14.6058H93.9634C82.2603 14.0121 77.3436 7.55374 77.1353 7.28291C76.9946 7.0902 76.9582 6.8402 77.0415 6.61624C77.1248 6.39749 77.3071 6.22561 77.5415 6.17353C86.1665 4.13186 94.1873 13.0485 94.5259 13.4287C94.7134 13.6423 94.755 13.9496 94.6353 14.2048C94.5155 14.4496 94.2707 14.6058 93.9998 14.6058ZM67.9946 13.2985C69.6405 14.9027 73.7967 18.1631 81.0259 18.9964C78.6561 16.8089 73.4425 12.7464 67.9946 13.2985ZM82.8905 20.5642H82.854C71.1561 19.9756 66.2342 13.5121 66.0311 13.2412C65.8905 13.0485 65.854 12.7985 65.9321 12.5798C66.0155 12.3558 66.203 12.1892 66.4373 12.1319C75.0675 10.0902 83.0832 19.0069 83.4217 19.3923C83.6092 19.6006 83.6509 19.9079 83.5259 20.1631C83.4061 20.4131 83.1613 20.5642 82.8905 20.5642ZM69.7082 25.3142C69.7082 25.3142 61.7446 16.3037 53.4165 18.2777C53.4165 18.2777 58.2082 24.736 69.7082 25.3142Z" fill="#AA8988"/>
<path d="M54.8125 18.7568C56.4583 20.361 60.6146 23.6214 67.8438 24.4548C65.474 22.262 60.2604 18.21 54.8125 18.7568ZM69.7083 26.0225H69.6719C57.974 25.4339 53.0521 18.9704 52.849 18.6995C52.7083 18.5068 52.6719 18.262 52.7552 18.0381C52.8333 17.8141 53.0208 17.6423 53.2552 17.5902C61.8958 15.5485 69.901 24.4652 70.2396 24.8506C70.4271 25.0589 70.4688 25.3662 70.3438 25.6214C70.2292 25.8714 69.9792 26.0225 69.7083 26.0225ZM37.5052 11.2152C38.5781 13.2516 41.5208 17.6423 48.1354 20.6735C46.5625 17.8558 42.8698 12.3662 37.5052 11.2152ZM49.6458 22.7725C49.5573 22.7725 49.474 22.7568 49.3906 22.7256C38.4479 18.5433 35.7708 10.8766 35.6615 10.5537C35.5833 10.3298 35.625 10.0798 35.7708 9.89746C35.9219 9.70996 36.1406 9.59017 36.3854 9.62663C45.2344 10.3506 50.0885 21.3193 50.2917 21.7881C50.4063 22.0485 50.349 22.3506 50.151 22.5537C50.0156 22.6943 49.8333 22.7725 49.6458 22.7725ZM32.8906 12.4443C32.8906 12.4443 28.1094 1.40788 19.5781 0.709961C19.5781 0.709961 22.1354 8.33496 32.8906 12.4443Z" fill="#AA8988"/>
<path d="M20.7551 1.59529C21.8229 3.63174 24.7708 8.01716 31.3854 11.0484C29.8124 8.2307 26.1197 2.74633 20.7551 1.59529ZM32.8906 13.1526C32.8072 13.1526 32.7239 13.137 32.6406 13.1057C21.6979 8.92341 19.0208 1.25674 18.9114 0.933828C18.8333 0.709869 18.8749 0.45987 19.0208 0.27237C19.1666 0.0848695 19.3958 -0.0297142 19.6354 0.00674452C28.4843 0.730703 33.3385 11.6995 33.5416 12.163C33.651 12.4234 33.5989 12.7307 33.401 12.9338C33.2656 13.0745 33.0833 13.1526 32.8906 13.1526ZM2.13535 13.7099C4.39056 14.137 9.65619 14.564 16.1458 11.2567C12.9583 10.7411 6.36452 10.2255 2.13535 13.7099ZM5.41139 15.439C2.44785 15.439 0.619727 14.8036 0.468685 14.7463C0.244727 14.6682 0.0780607 14.4807 0.0207687 14.2463C-0.036522 14.0172 0.025977 13.7776 0.192644 13.6005C6.26035 7.12133 17.8697 10.1317 18.3593 10.262C18.6301 10.3401 18.8385 10.5692 18.8749 10.8505C18.9114 11.1317 18.7812 11.4078 18.5364 11.5536C13.2656 14.6786 8.65619 15.439 5.41139 15.439ZM8.32806 23.2724C6.88014 26.1526 4.41139 32.288 6.46348 37.3713C7.55202 35.3453 9.53119 30.4442 8.32806 23.2724ZM6.39056 39.5536C6.37494 39.5536 6.35931 39.5536 6.34369 39.5484C6.10931 39.5328 5.89577 39.3974 5.77598 39.1942C1.41139 31.4599 7.77077 21.2932 8.0416 20.8609C8.19264 20.6213 8.4791 20.4963 8.75514 20.5432C9.03639 20.5901 9.26035 20.8036 9.32285 21.0797C11.9999 32.4807 7.16139 39.0015 6.95306 39.2724C6.81764 39.4495 6.60931 39.5536 6.39056 39.5536ZM173.536 26.5536C166.953 26.5536 160.099 24.5901 153.01 19.5484C135.375 7.00154 124.963 12.314 124.859 12.3661L124.187 11.1265C124.635 10.8817 135.411 5.2932 153.828 18.3974C172.13 31.4234 189.026 22.9859 203.427 14.0536C210.401 9.7255 216.646 8.55362 221.984 10.564C230.276 13.689 233.276 23.288 233.401 23.6942L232.047 24.1005C232.021 24.012 229.12 14.7567 221.479 11.8817C216.573 10.038 210.75 11.1734 204.172 15.2515C194.901 21.0067 184.609 26.5536 173.536 26.5536Z" fill="#AA8988"/>
<path d="M146.609 3.70464C141.536 3.70464 136.833 7.40777 134.614 9.45985C141.844 8.62652 146 5.36089 147.646 3.75672C147.302 3.72548 146.953 3.70464 146.609 3.70464ZM132.75 11.0223C132.479 11.0223 132.229 10.8713 132.114 10.6265C131.989 10.3713 132.031 10.064 132.219 9.85047C132.557 9.47027 140.568 0.553599 149.203 2.59006C149.437 2.64735 149.625 2.81402 149.703 3.03797C149.786 3.26193 149.75 3.51193 149.609 3.69943C149.406 3.97547 144.484 10.4338 132.786 11.0223H132.75ZM146.182 13.9807C146.182 13.9807 154.151 4.96506 162.479 6.94422C162.479 6.94422 157.682 13.3973 146.182 13.9807Z" fill="#AA8988"/>
<path d="M160.042 7.36609C154.974 7.36609 150.265 11.0692 148.047 13.1161C155.276 12.288 159.437 9.02234 161.078 7.41817C160.734 7.38692 160.385 7.36609 160.042 7.36609ZM146.182 14.6838C145.911 14.6838 145.667 14.5328 145.547 14.288C145.422 14.0328 145.463 13.7255 145.656 13.5119C145.989 13.1317 153.995 4.20984 162.64 6.2515C162.87 6.30879 163.057 6.47546 163.14 6.69942C163.224 6.92338 163.182 7.17338 163.042 7.36088C162.838 7.63692 157.917 14.0953 146.219 14.6838H146.182ZM171.146 13.3244C166.083 13.3244 161.375 17.0275 159.156 19.0796C166.385 18.2463 170.542 14.9859 172.187 13.3765C171.838 13.3453 171.495 13.3244 171.146 13.3244ZM157.292 20.6473C157.021 20.6473 156.771 20.4911 156.656 20.2463C156.531 19.9911 156.573 19.6838 156.76 19.4703C157.099 19.09 165.104 10.1682 173.745 12.215C173.979 12.2671 174.167 12.439 174.245 12.6578C174.328 12.8817 174.292 13.1317 174.151 13.3192C173.948 13.5953 169.026 20.0536 157.328 20.6473H157.292ZM170.469 25.3973C170.469 25.3973 178.437 16.3817 186.765 18.3609C186.765 18.3609 181.969 24.8192 170.469 25.3973Z" fill="#AA8988"/>
<path d="M184.328 18.7829C179.26 18.7829 174.552 22.486 172.333 24.5381C179.563 23.7048 183.724 20.4443 185.365 18.835C185.021 18.8037 184.672 18.7829 184.328 18.7829ZM170.469 26.1006C170.198 26.1006 169.953 25.9495 169.833 25.7048C169.708 25.4495 169.75 25.1423 169.943 24.9287C170.276 24.5485 178.286 15.6266 186.927 17.6735C187.156 17.7256 187.344 17.8923 187.427 18.1162C187.51 18.3402 187.469 18.5902 187.328 18.7777C187.125 19.0537 182.203 25.512 170.505 26.1006H170.469ZM202.677 11.2985C197.307 12.4443 193.615 17.9339 192.042 20.7516C198.688 17.7152 201.62 13.3298 202.677 11.2985ZM190.536 22.8558C190.349 22.8558 190.161 22.7777 190.026 22.637C189.828 22.4287 189.776 22.1266 189.891 21.8662C190.094 21.3975 194.943 10.4339 203.792 9.70996C204.026 9.6735 204.26 9.78809 204.406 9.97559C204.552 10.1631 204.594 10.4131 204.521 10.637C204.411 10.96 201.729 18.6266 190.792 22.8089C190.708 22.8402 190.625 22.8558 190.536 22.8558ZM207.286 12.5277C207.286 12.5277 212.073 1.49121 220.599 0.788086C220.599 0.788086 218.042 8.41309 207.286 12.5277Z" fill="#AA8988"/>
<path d="M219.422 1.6788C214.052 2.82463 210.364 8.31422 208.792 11.1319C215.411 8.10068 218.354 3.71005 219.422 1.6788ZM207.286 13.2309C207.099 13.2309 206.911 13.158 206.776 13.0173C206.578 12.809 206.526 12.5069 206.64 12.2465C206.844 11.7778 211.693 0.814217 220.547 0.0902582C220.781 0.0590088 221.01 0.168383 221.156 0.355883C221.302 0.543383 221.344 0.793383 221.271 1.01734C221.161 1.34026 218.484 9.00172 207.542 13.1892C207.458 13.2205 207.375 13.2309 207.286 13.2309ZM224.036 11.3403C230.515 14.6423 235.786 14.2205 238.047 13.7934C233.818 10.309 227.224 10.8246 224.036 11.3403ZM234.771 15.5225C231.526 15.5225 226.911 14.7569 221.646 11.6319C221.401 11.4861 221.265 11.2101 221.307 10.9288C221.344 10.6476 221.547 10.4184 221.823 10.3455C222.318 10.2101 233.922 7.19963 239.989 13.684C240.151 13.8559 240.219 14.1007 240.161 14.3298C240.104 14.559 239.937 14.7517 239.713 14.8298C239.562 14.8871 237.734 15.5225 234.771 15.5225ZM231.854 23.3507C230.651 30.5278 232.63 35.4288 233.713 37.4548C235.771 32.3715 233.302 26.2361 231.854 23.3507ZM233.786 39.6319C233.568 39.6319 233.364 39.533 233.229 39.3559C233.021 39.085 228.177 32.5642 230.854 21.158C230.922 20.8819 231.146 20.6736 231.427 20.6267C231.708 20.5798 231.984 20.7048 232.14 20.9444C232.411 21.3715 238.765 31.5434 234.401 39.2725C234.286 39.4809 234.073 39.6163 233.838 39.6319H233.786ZM120.057 13.3038C122.531 13.3038 122.536 9.46005 120.057 9.46005C117.588 9.46005 117.583 13.3038 120.057 13.3038Z" fill="#AA8988"/>
</svg>
