<?xml version="1.0" standalone="no"?>
<svg xmlns:xlink="http://www.w3.org/1999/xlink" id="wave" style="transform:rotate(180deg); transition: 0.3s" viewBox="0 0 1440 160" version="1.1" xmlns="http://www.w3.org/2000/svg"><defs><linearGradient id="sw-gradient-0" x1="0" x2="0" y1="1" y2="0"><stop stop-color="rgba(255, 255, 255, 1)" offset="0%"/><stop stop-color="rgba(255, 255, 255, 1)" offset="100%"/></linearGradient></defs><path style="transform:translate(0, 0px); opacity:1" fill="url(#sw-gradient-0)" d="M0,32L48,45.3C96,59,192,85,288,85.3C384,85,480,59,576,61.3C672,64,768,96,864,109.3C960,123,1056,117,1152,96C1248,75,1344,37,1440,40C1536,43,1632,85,1728,85.3C1824,85,1920,43,2016,26.7C2112,11,2208,21,2304,37.3C2400,53,2496,75,2592,85.3C2688,96,2784,96,2880,82.7C2976,69,3072,43,3168,40C3264,37,3360,59,3456,61.3C3552,64,3648,48,3744,40C3840,32,3936,32,4032,29.3C4128,27,4224,21,4320,21.3C4416,21,4512,27,4608,24C4704,21,4800,11,4896,18.7C4992,27,5088,53,5184,58.7C5280,64,5376,48,5472,58.7C5568,69,5664,107,5760,106.7C5856,107,5952,69,6048,50.7C6144,32,6240,32,6336,45.3C6432,59,6528,85,6624,88C6720,91,6816,69,6864,58.7L6912,48L6912,160L6864,160C6816,160,6720,160,6624,160C6528,160,6432,160,6336,160C6240,160,6144,160,6048,160C5952,160,5856,160,5760,160C5664,160,5568,160,5472,160C5376,160,5280,160,5184,160C5088,160,4992,160,4896,160C4800,160,4704,160,4608,160C4512,160,4416,160,4320,160C4224,160,4128,160,4032,160C3936,160,3840,160,3744,160C3648,160,3552,160,3456,160C3360,160,3264,160,3168,160C3072,160,2976,160,2880,160C2784,160,2688,160,2592,160C2496,160,2400,160,2304,160C2208,160,2112,160,2016,160C1920,160,1824,160,1728,160C1632,160,1536,160,1440,160C1344,160,1248,160,1152,160C1056,160,960,160,864,160C768,160,672,160,576,160C480,160,384,160,288,160C192,160,96,160,48,160L0,160Z"/></svg>