<svg width="57" height="97" viewBox="0 0 57 97" fill="none" xmlns="http://www.w3.org/2000/svg">
<path d="M1.1957 96.3367C20.8809 89.7546 38.8394 76.1299 48.7423 57.042C53.9223 47.0571 56.8551 35.7821 56.9948 24.4347C57.0646 18.7939 56.4361 13.1203 55.0523 7.66377C54.5 5.47196 53.9541 2.67461 52.0243 1.30555C49.7834 -0.280719 47.5045 1.46352 45.8223 3.0432C37.4937 10.8758 33.6658 23.2631 35.8432 34.6632C36.0527 35.769 37.8745 35.5386 37.7603 34.3933C36.8716 25.9091 34.599 17.6355 30.9552 9.97405C30.1744 8.32855 29.4126 6.2289 28.0161 5.02439C26.6068 3.80672 24.823 4.20163 23.4963 5.33373C20.9761 7.47947 19.3891 11.1325 18.5893 14.3379C16.8499 21.3478 18.1957 28.8776 20.2144 35.6637C22.5885 43.6608 25.8831 51.4605 29.3238 59.0232C33.4055 68.0011 38.0523 76.7025 43.2005 85.0682C43.8734 86.1674 45.5683 85.1473 44.8891 84.0481C36.5034 70.4299 29.4698 55.9231 23.9914 40.7976C21.6681 34.3867 19.6684 27.6204 19.7637 20.7093C19.8017 17.5368 20.335 14.305 21.6681 11.4287C22.3536 9.93456 23.2297 8.40753 24.3723 7.23593C24.9436 6.65672 25.7879 5.96561 26.6005 6.4461C27.3559 6.88709 27.7939 8.0521 28.1811 8.80903C32.2819 16.7206 34.8719 25.4615 35.8051 34.3933C36.4462 34.3078 37.0874 34.2156 37.7222 34.1301C35.9067 24.5861 38.6553 14.2655 44.8383 6.96607C45.581 6.09066 46.3682 5.25476 47.2061 4.4715C48.0377 3.69482 49.2311 2.39816 50.469 2.75359C51.4085 3.02345 51.9291 4.16215 52.2591 5.03097C52.7289 6.26181 53.0273 7.59138 53.3383 8.87487C54.5635 13.9562 55.1031 19.1955 55.0396 24.4347C54.9126 35.0713 52.2528 45.6617 47.5299 55.0938C43.0545 64.0256 36.7192 71.8516 29.2603 78.2756C20.8682 85.5027 11.0542 90.9131 0.675165 94.3818C-0.511914 94.7767 -0.00407349 96.7316 1.1957 96.3367Z" fill="#AA8988"/>
</svg>
